<?xml version="1.0" encoding="UTF-8" standalone="no"?>
<svg
   xmlns:dc="http://purl.org/dc/elements/1.1/"
   xmlns:cc="http://creativecommons.org/ns#"
   xmlns:rdf="http://www.w3.org/1999/02/22-rdf-syntax-ns#"
   xmlns:svg="http://www.w3.org/2000/svg"
   xmlns="http://www.w3.org/2000/svg"
   xmlns:sodipodi="http://sodipodi.sourceforge.net/DTD/sodipodi-0.dtd"
   xmlns:inkscape="http://www.inkscape.org/namespaces/inkscape"
   version="1.1"
   x="0px"
   y="0px"
   viewBox="0 0 100 125"
   enable-background="new 0 0 100 100"
   xml:space="preserve"
   id="svg22"
   sodipodi:docname="noun-cycling-mountain-bike-776375_RFS.svg"
   inkscape:version="0.92.3 (2405546, 2018-03-11)"><metadata
     id="metadata28"><rdf:RDF><cc:Work
         rdf:about=""><dc:format>image/svg+xml</dc:format><dc:type
           rdf:resource="http://purl.org/dc/dcmitype/StillImage" /><dc:title></dc:title></cc:Work></rdf:RDF></metadata><defs
     id="defs26" /><sodipodi:namedview
     pagecolor="#ffffff"
     bordercolor="#666666"
     borderopacity="1"
     objecttolerance="10"
     gridtolerance="10"
     guidetolerance="10"
     inkscape:pageopacity="0"
     inkscape:pageshadow="2"
     inkscape:window-width="2560"
     inkscape:window-height="1369"
     id="namedview24"
     showgrid="false"
     inkscape:zoom="7.552"
     inkscape:cx="55.574521"
     inkscape:cy="61.166034"
     inkscape:window-x="2552"
     inkscape:window-y="-8"
     inkscape:window-maximized="1"
     inkscape:current-layer="svg22" /><path
     d="m 34.285386,55.7144 c -4.590788,5.471091 -11.278324,3.612449 -16.749413,-0.978339 -5.47109,-4.59079 -7.6520507,-10.173702 -3.061261,-15.644791 4.591431,-5.471855 12.746517,-6.184622 18.217607,-1.593833 5.471089,4.590788 6.184499,12.745108 1.593067,18.216963 z m 3.038133,2.549297 C 43.322013,51.11497 42.389698,40.458564 35.240972,34.46007 28.095309,28.464147 17.435839,29.393891 11.437345,36.542617 5.4414225,43.68828 8.2999954,51.644835 15.444893,57.640115 c 7.148726,5.998494 15.882704,7.769244 21.878626,0.623582 z"
     id="path2"
     inkscape:connector-curvature="0"
     sodipodi:nodetypes="ssssssssss" /><path
     d="m 81.861166,76.202912 c -5.5643,3.212551 -13.122282,-1.604983 -16.33438,-7.168503 -3.215699,-5.569755 -1.309451,-12.686434 4.254849,-15.898985 5.566637,-3.213898 12.682537,-1.307199 15.898686,4.263336 3.2121,5.56352 1.747482,15.590254 -3.819155,18.804152 z m 1.724663,2.987206 c 7.273575,-4.199401 9.383283,-16.305602 5.185683,-23.576058 -4.198949,-7.272795 -13.497974,-9.765779 -20.772328,-5.565929 -7.270456,4.197599 -9.76299,13.497404 -5.56359,20.770979 4.19793,7.269226 13.879779,12.568608 21.150235,8.371008 z"
     id="path4"
     inkscape:connector-curvature="0"
     sodipodi:nodetypes="sssssssscs"
     style="stroke-width:0.89999998" /><g
     id="g8"><path
       d="M90.681,20.208c0-3.641-2.957-6.598-6.599-6.598c-3.645,0-6.602,2.957-6.602,6.598c0,3.645,2.957,6.602,6.602,6.602   C87.724,26.811,90.681,23.853,90.681,20.208L90.681,20.208z"
       id="path6" /></g><g
     id="g12"><path
       d="M55.475,24.246l-0.219,39.192l-9.298-2.939l0.219-39.248c0.004-0.878,0.139-1.751,0.405-2.595   c1.464-4.624,6.392-7.185,11.011-5.72l12.556,3.965c3.497,1.101,5.936,4.265,6.121,7.931l0.439,8.817   c0.033,0.679,0.484,1.266,1.134,1.468l6.894,2.186c2.447,0.776,3.806,3.396,3.033,5.847l-1.408,4.442l-4.438-1.405l-8.328-2.641   c-3.497-1.105-5.936-4.265-6.117-7.927l-0.438-8.822c-0.033-0.679-0.485-1.266-1.135-1.472l-8.312-2.624   c-0.856-0.27-1.771,0.202-2.042,1.059C55.5,23.921,55.475,24.081,55.475,24.246z"
       id="path10" /></g><g
     id="g16"
     transform="matrix(1.0886768,0.24993861,0.29487272,0.85023368,-30.117289,-7.6954328)"
     inkscape:transform-center-x="-9.9311764"
     inkscape:transform-center-y="8.0138865"><polygon
       points="54.64,77.609 43.034,80.739 19.827,69.176 21.008,66.809 43.312,77.926 55.285,74.697 70.312,87.303 68.613,89.324 "
       id="polygon14"
       transform="matrix(1.422281,0,0,1.4763773,-17.906463,-29.177988)" /></g></svg>